# xmcd
#
# Track frame offsets:
#	150
#	15635
#	31077
#	43887
#	56690
#	69517
#	83185
#	95132
#	111815
#	123707
#	136350
#	148980
#
# Disc length: 2316 seconds
#
# Revision: 0
# Processed by: cddbd v1.5.2PL0 Copyright (c) Steve Scherf et al.
# Submitted via: EasyCDDAExtractor 15.3.0.1
#
DISCID=b1090a0c
DTITLE=Swamp Dogg - Total Destruction to Your Mind
DYEAR=1991
DGENRE=Soul
TTITLE0=Total Destruction to Your Mind
TTITLE1=Synthetic World
TTITLE2=Dust Your Head Colour Red
TTITLE3=Redneck
TTITLE4=If I Die Tomorrow (I've Lived Tonite)
TTITLE5=I Was Born Blue
TTITLE6=Sal-A-Faster
TTITLE7=The World Beyond
TTITLE8=These Are Not My People
TTITLE9=Everything You'll Ever Need
TTITLE10=The Baby Is Mine
TTITLE11=God Bless America For What?
EXTD=
EXTT0=
EXTT1=
EXTT2=
EXTT3=
EXTT4=
EXTT5=
EXTT6=
EXTT7=
EXTT8=
EXTT9=
EXTT10=
EXTT11=
PLAYORDER=
